<svg width="135" height="142" viewBox="0 0 135 142" fill="none" xmlns="http://www.w3.org/2000/svg">
<path fill-rule="evenodd" clip-rule="evenodd" d="M0 3C0 1.34314 1.34315 0 3 0H132C133.657 0 135 1.34315 135 3V139C135 140.657 133.657 142 132 142H3C1.34315 142 0 140.657 0 139V3ZM7 104.2V37H35.996C43.292 37 49.724 38.408 55.292 41.224C60.86 43.976 65.212 47.848 68.348 52.84C71.484 57.832 73.052 63.752 73.052 70.6C73.052 77.384 71.484 83.304 68.348 88.36C65.212 93.352 60.86 97.256 55.292 100.072C49.724 102.824 43.292 104.2 35.996 104.2H7ZM21.02 91.432H35.228C39.708 91.432 43.58 90.6 46.844 88.936C50.172 87.208 52.732 84.776 54.524 81.64C56.38 78.504 57.308 74.824 57.308 70.6C57.308 66.312 56.38 62.632 54.524 59.56C52.732 56.424 50.172 54.024 46.844 52.36C43.58 50.632 39.708 49.768 35.228 49.768H21.02V91.432ZM92.552 37H77V104.2H126.248V91.528H92.552V37Z" fill="#211F1D"/>
</svg>
